<?xml version="1.0" encoding="iso-8859-1"?>
<!-- Generator: Adobe Illustrator 19.0.0, SVG Export Plug-In . SVG Version: 6.00 Build 0)  -->
<svg version="1.1" id="Layer_1" xmlns="http://www.w3.org/2000/svg" xmlns:xlink="http://www.w3.org/1999/xlink" x="0px" y="0px"
	 viewBox="0 0 365.001 365.001" style="enable-background:new 0 0 365.001 365.001;" xml:space="preserve">
<g id="XMLID_1116_">
	<path id="XMLID_1117_" style="fill:#BE720D;" d="M241.177,41.078v31.255h-7.242C254.334,87.86,267.51,112.387,267.51,140
		c0,46.944-38.056,85-85,85s-85-38.056-85-85c0-27.613,13.176-52.141,33.575-67.667h-7.242V41.078
		C90.117,61.124,67.51,97.919,67.51,140c0,63.513,51.487,115,115,115s115-51.487,115-115
		C297.51,97.919,274.904,61.124,241.177,41.078z"/>
	<path id="XMLID_1118_" style="fill:#804C09;" d="M97.51,140c0-27.613,13.176-52.141,33.575-67.667h-25.241V54.292
		C82.319,75.35,67.51,105.944,67.51,140c0,63.513,51.487,115,115,115v-30C135.566,225,97.51,186.944,97.51,140z"/>
	<g id="XMLID_1119_">
		<circle id="XMLID_1120_" style="fill:#EA348B;" cx="122.615" cy="53.875" r="35"/>
		<path id="XMLID_36_" style="fill:#AF2768;" d="M150.929,74.451c-11.364,15.637-33.252,19.101-48.89,7.736
			c-15.637-11.364-19.101-33.252-7.736-48.889"/>
		<circle id="XMLID_1121_" style="fill:#EA348B;" cx="242.399" cy="55.53" r="35"/>
		<path id="XMLID_34_" style="fill:#AF2768;" d="M235.39,89.821c-18.939-3.872-31.152-22.362-27.282-41.301
			c3.872-18.939,22.362-31.152,41.301-27.281"/>
		<circle id="XMLID_1122_" style="fill:#FFDA44;" cx="183.449" cy="35" r="35"/>
		<path id="XMLID_32_" style="fill:#FF9811;" d="M183.346,69.999c-19.33-0.058-34.954-15.773-34.897-35.104
			C148.505,15.566,164.222-0.057,183.552,0"/>
	</g>
	
		<ellipse id="XMLID_1123_" transform="matrix(-0.9659 -0.2588 0.2588 -0.9659 179.9606 477.3083)" style="fill:#00D7DF;" cx="121.398" cy="226.809" rx="69.998" ry="51.998"/>
	<path id="XMLID_29_" style="fill:#00D7DF;" d="M121.397,342.757c-4.288,16.004-20.738,25.502-36.742,21.214l0,0
		c-16.004-4.288-25.502-20.738-21.213-36.742l18.118-67.615c4.288-16.004,20.738-25.501,36.742-21.213l0,0
		c16.004,4.288,25.501,20.737,21.213,36.741l-7.765,28.979L121.397,342.757z"/>
	<path id="XMLID_28_" style="fill:#00A0A6;" d="M107.949,277.037c-37.343-10.006-61.589-40.605-54.156-68.345
		s43.731-42.117,81.073-32.111"/>
	<path id="XMLID_27_" style="fill:#00A0A6;" d="M111.75,329.819l12.234,3.279l7.765-28.978l-12.234-3.279
		c-8.003-2.144-16.227,2.604-18.371,10.607C98.999,319.451,103.747,327.676,111.75,329.819z"/>
	<path id="XMLID_26_" style="fill:#FFDA44;" d="M301.579,327.229c4.288,16.004-5.21,32.454-21.213,36.742l0,0
		c-16.004,4.288-32.454-5.209-36.743-21.213l-18.117-67.615c-4.288-16.004,5.21-32.454,21.214-36.742l0,0
		c16.003-4.288,32.454,5.209,36.742,21.213l7.765,28.978L301.579,327.229z"/>
	
		<ellipse id="XMLID_1124_" transform="matrix(-0.2588 -0.9659 0.9659 -0.2588 87.5684 520.8102)" style="fill:#FFDA44;" cx="243.602" cy="226.808" rx="51.998" ry="69.998"/>
	<path id="XMLID_24_" style="fill:#FF9811;" d="M257.072,277.037c-37.343,10.006-73.641-4.37-81.074-32.11
		c-7.433-27.74,16.814-58.34,54.157-68.346"/>
	<path id="XMLID_23_" style="fill:#FF9811;" d="M286.756,320.848l12.234-3.278l-7.765-28.978l-12.234,3.278
		c-8.003,2.145-12.751,10.369-10.606,18.371C270.529,318.244,278.753,322.992,286.756,320.848z"/>
	<path id="XMLID_1125_" style="fill:#804C09;" d="M132.027,208.385c-0.006,0-0.012,0.001-0.017,0.001
		c-1.473-1.093-3.165-1.942-5.043-2.445c-8-2.143-16.224,2.604-18.367,10.604c-1.636,6.105,0.75,12.333,5.525,15.896
		c0.001,0.009,0.002,0.018,0.004,0.026C133.241,246.626,156.897,255,182.51,255v-30C163.604,225,146.143,218.824,132.027,208.385z"
		/>
	<path id="XMLID_1126_" style="fill:#BE720D;" d="M256.392,216.587c-2.144-8-10.367-12.748-18.366-10.604
		c-1.953,0.523-3.707,1.413-5.22,2.569c-0.005-0.006-0.011-0.011-0.017-0.016C218.709,218.885,201.325,225,182.51,225v30
		c25.365,0,48.803-8.225,67.815-22.137C255.457,229.377,258.088,222.918,256.392,216.587z"/>
</g>
<g>
</g>
<g>
</g>
<g>
</g>
<g>
</g>
<g>
</g>
<g>
</g>
<g>
</g>
<g>
</g>
<g>
</g>
<g>
</g>
<g>
</g>
<g>
</g>
<g>
</g>
<g>
</g>
<g>
</g>
</svg>
